# xmcd
#
# Track frame offsets: 
#        150
#        12958
#        24418
#        37196
#        56457
#
# Disc length: 1034 seconds
#
# Revision: 0
# Processed by: cddbd v1.5.2PL0 Copyright (c) Steve Scherf et al.
# Submitted via: ExactAudioCopy v0.95a5
#
DISCID=36040805
DTITLE=Various Artist - Soul Sides, Volume One: Turntable Bonus Disc
DYEAR=1900
DGENRE=Soul
TTITLE0=The Sylvers - We Can Make It If We Try
TTITLE1=Jade - Don't Walk Away
TTITLE2=Harvey Averne - You're No Good
TTITLE3=Dee Dee Warwick - Foolish Fool
TTITLE4=The Whispers - Make It with You
EXTD=
EXTT0=
EXTT1=
EXTT2=
EXTT3=
EXTT4=
PLAYORDER=
